<?xml version="1.0" encoding="utf-8"?>
<!-- Uploaded to: SVG Repo, www.svgrepo.com, Generator: SVG Repo Mixer Tools -->
<svg width="800px" height="800px" viewBox="0 -13.1 95.34037 95.34037" xmlns="http://www.w3.org/2000/svg">
<title>Asset 9</title>
<g id="Layer_2" data-name="Layer 2">
<g id="Layer_1-2" data-name="Layer 1">
<g id="Scooter">
<g id="Wheels">
<path id="Right_Wheel" data-name="Right Wheel" d="M95.34037,57.43523A11.69553,11.69553,0,1,1,83.64486,45.73339,11.69873,11.69873,0,0,1,95.34037,57.43523Z" style="fill:#ff7878"/>
<path id="Left_Wheel" data-name="Left Wheel" d="M26.612,57.43523A11.69553,11.69553,0,1,1,14.91647,45.73339,11.69874,11.69874,0,0,1,26.612,57.43523Z" style="fill:#ff7878"/>
</g>
<path id="Steering_Handles" data-name="Steering Handles" d="M80.048,5.36744l-.27684-1.7437a2.14738,2.14738,0,0,0-2.45743-1.784L67.82817,3.34593A2.14344,2.14344,0,0,0,66.227,4.54512a2.13507,2.13507,0,0,0-1.797-.55858L47.42884,6.686A2.14716,2.14716,0,0,0,45.645,9.14329l.27684,1.7437a2.14724,2.14724,0,0,0,2.45743,1.78388L65.38045,9.97146a2.14352,2.14352,0,0,0,1.6013-1.19927,2.13472,2.13472,0,0,0,1.79681.55866l9.48559-1.50608A2.14715,2.14715,0,0,0,80.048,5.36744Z" style="fill:#c4c4c4"/>
<path id="Scooter_Body" data-name="Scooter Body" d="M89.9339,44.60079A12.23983,12.23983,0,0,0,83.53472,38.571a4.294,4.294,0,0,1-2.99879-3.39357c-.82424-8.27671-3.31879-21.9476-8.54254-27.1413.34411-1.60917.80275-4.73655.37442-6.33392A1.50879,1.50879,0,0,0,71.17317.72724,21.65837,21.65837,0,0,0,63.14754.17749,2.50494,2.50494,0,0,0,61.3509,3.40857c3.37024,14.26695,6.69148,40.8986-3.37855,50.37336-1.92767,1.936-9.12112,3.76118-13.44883,0a11.74288,11.74288,0,0,1-3.43681-8.785c.10352-1.86365-.73723-3.8537-2.50687-4.44731l-23.75525-7.9685a2.90027,2.90027,0,0,0-1.66472-.078C7.9763,33.87155-.2548,38.67615.00605,48.96466a3.06712,3.06712,0,0,0,3.63407,2.74816,39.76394,39.76394,0,0,1,14.0026.61414l-5.71025,3.43436a2.147,2.147,0,0,0-.7333,2.94664l1.20923,2.01023a2.14733,2.14733,0,0,0,2.94681.7333L25.43529,55.389a25.74558,25.74558,0,0,1,9.55058,9.58448,3.43451,3.43451,0,0,0,2.65468,1.73836l8.29147.698c.07828.00664.15437.01616.23282.02245,1.62.13191,18.33834.68036,22.69741-2.20566a1.96777,1.96777,0,0,0,.74666-1.71154V62.17815a2.58927,2.58927,0,0,1,.03739-.46345,13.79738,13.79738,0,0,1,4.612-7.39184L82.654,61.20365a2.14744,2.14744,0,0,0,3.022-.29947l1.47314-1.79725a2.147,2.147,0,0,0-.29947-3.02168l-6.65243-5.45211a31.42237,31.42237,0,0,1,7.3403-2.10021C89.48164,48.21188,90.84768,46.34658,89.9339,44.60079Z" style="fill:#83ebc5"/>
<path id="Seat" d="M3.57905,33.07405a4.25438,4.25438,0,0,1,3.98388-3.51247A140.13394,140.13394,0,0,1,40.9816,31.58717a4.25483,4.25483,0,0,1,3.49808,4.759l-.29334,2.23947a4.29462,4.29462,0,0,1-4.816,3.70039L7.24459,38.07873A4.28892,4.28892,0,0,1,3.57905,33.07405Z" style="fill:#c4c4c4"/>
<g id="Light">
<path id="Edge" d="M86.96589,29.85712a9.12608,9.12608,0,1,1-9.1261-9.1253A9.12571,9.12571,0,0,1,86.96589,29.85712Z" style="fill:#fab96f"/>
<path id="Center" d="M85.08548,29.85683a7.24565,7.24565,0,1,1-7.24565-7.245A7.24535,7.24535,0,0,1,85.08548,29.85683Z" style="fill:#fff8c9"/>
</g>
<path id="Heart" d="M13.46888,49.77966l-.52118-.84626c-2.006-2.85109-3.30687-4.76021-2.86225-6.61036A2.72176,2.72176,0,0,1,13.42,40.29187a3.03016,3.03016,0,0,1,1.956,1.55158,3.03018,3.03018,0,0,1,2.44748-.49334,2.72176,2.72176,0,0,1,2.04751,3.32456c-.44463,1.85016-2.4709,2.95972-5.55339,4.588Z" style="fill:#ff7878"/>
</g>
</g>
</g>
</svg>